<svg xmlns="http://www.w3.org/2000/svg" width="67" height="227" viewBox="0 0 67 227">
  <defs>
    <style>
      .cls-1, .cls-4 {
        fill: #fff;
      }

      .cls-1, .cls-2, .cls-3, .cls-4, .cls-5, .cls-6, .cls-7, .cls-8, .cls-9 {
        fill-rule: evenodd;
      }

      .cls-2 {
        fill: #333;
      }

      .cls-3 {
        fill: #353535;
      }

      .cls-3, .cls-4 {
        fill-opacity: 0.99;
      }

      .cls-5 {
        fill: #e84d37;
      }

      .cls-6 {
        fill: #343434;
      }

      .cls-7 {
        fill: #f7f8f8;
      }

      .cls-8 {
        fill: #eebb9e;
      }

      .cls-9 {
        fill: #e9e9e9;
      }
    </style>
  </defs>
  <path id="Лупа" class="cls-1" d="M12.155,10.747H11.4l-0.263-.261a6.216,6.216,0,1,0-.675.675l0.263,0.262v0.755l4.772,4.76,1.424-1.422Zm-5.731,0a4.291,4.291,0,1,1,4.3-4.291A4.294,4.294,0,0,1,6.424,10.747Z"/>
  <path id="Лупа-2" data-name="Лупа" class="cls-2" d="M37.155,10.747H36.4l-0.263-.261a6.213,6.213,0,1,0-.675.675l0.263,0.262v0.755l4.772,4.76,1.423-1.422Zm-5.731,0a4.291,4.291,0,1,1,4.3-4.291A4.294,4.294,0,0,1,31.424,10.747Z"/>
  <path id="Вход_copy" data-name="Вход copy" class="cls-3" d="M28,23.968v-0.96a3,3,0,0,1,3-3H42.059a3,3,0,0,1,3,3V35.985a3,3,0,0,1-3,3H31a3,3,0,0,1-3-3V35h2v2H43V22H30v1.969H28Zm-3,8.046h6.029v2.743l7.027-5.3-7.027-5.3V26.9H24.995v5.113Z"/>
  <path id="Вход" class="cls-4" d="M3,23.968v-0.96a3,3,0,0,1,3-3H17.059a3,3,0,0,1,3,3V35.986a3,3,0,0,1-3,3H6a3,3,0,0,1-3-3V35H5v2H18V22H5v1.968H3Zm-3,8.046H6.024v2.743l7.027-5.3-7.027-5.3V26.9H-0.005v5.114Z"/>
  <path id="Корзина" class="cls-1" d="M20.576,49.46l-1.2,8.912a2.033,2.033,0,0,1-1.883,1.635H6.61a2.027,2.027,0,0,1-1.879-1.635L3.262,48.085a3.678,3.678,0,0,1-.137-1.055H1a1,1,0,0,1,0-2H5a1,1,0,0,1,1,1,0.99,0.99,0,0,1-.9.979H19.067C20.172,47.01,20.84,48.141,20.576,49.46ZM6.731,57.978l-1.313-9H18.624s-0.031.2-.031,0.2l-1.186,8.788c-0.008.011-.009,0.014,0,0.014H6.731Zm0.514,3.009a1.874,1.874,0,1,1-1.874,1.874A1.874,1.874,0,0,1,7.245,60.987Zm9,0a1.874,1.874,0,1,1-1.874,1.874A1.874,1.874,0,0,1,16.246,60.987Z"/>
  <path id="Корзина_заполнена" data-name="Корзина заполнена" class="cls-5" d="M29.5,48.375H44.625L43.25,58.625,30.625,58.5Z"/>
  <path id="Корзина-2" data-name="Корзина" class="cls-6" d="M45.576,49.46l-1.2,8.912a2.034,2.034,0,0,1-1.883,1.635H31.61a2.028,2.028,0,0,1-1.879-1.635L28.262,48.085a3.67,3.67,0,0,1-.137-1.054H26a1,1,0,1,1,0-2h4a1,1,0,0,1,1,1,0.99,0.99,0,0,1-.9.979H44.067C45.172,47.01,45.84,48.141,45.576,49.46ZM31.731,57.978l-1.313-9H43.624s-0.031.2-.031,0.2l-1.186,8.788c-0.008.011-.009,0.014,0,0.014H31.731Zm0.514,3.009a1.874,1.874,0,1,1-1.874,1.874A1.875,1.875,0,0,1,32.245,60.986Zm9,0a1.874,1.874,0,1,1-1.874,1.874A1.875,1.875,0,0,1,41.246,60.986Z"/>
  <path id="Корзина_копия" data-name="Корзина копия" class="cls-6" d="M66.576,4.46l-1.2,8.912a2.034,2.034,0,0,1-1.883,1.635H52.61a2.028,2.028,0,0,1-1.879-1.635L49.262,3.085a3.67,3.67,0,0,1-.137-1.054H47a1,1,0,1,1,0-2h4a1,1,0,0,1,1,1,0.99,0.99,0,0,1-.9.979H65.067C66.172,2.01,66.84,3.141,66.576,4.46ZM52.731,12.978l-1.313-9H64.624s-0.031.2-.031,0.2l-1.186,8.788c-0.008.011-.009,0.013,0,0.013H52.731Zm0.514,3.009a1.874,1.874,0,1,1-1.874,1.875A1.875,1.875,0,0,1,53.245,15.986Zm9,0a1.874,1.874,0,1,1-1.874,1.875A1.875,1.875,0,0,1,62.246,15.986Z"/>
  <path id="Сердце" class="cls-7" d="M7.606,157.732s7.285-3.6,7.285-8.224c0-5.126-5.5-5.936-7.3-1.705m0.049,9.929s-7.285-3.6-7.285-8.224c0-5.126,5.5-5.936,7.3-1.705"/>
  <path id="Сердце_копия" data-name="Сердце копия" class="cls-8" d="M32.606,157.732s7.285-3.6,7.285-8.224c0-5.126-5.5-5.936-7.3-1.705m0.049,9.929s-7.285-3.6-7.285-8.224c0-5.126,5.5-5.936,7.3-1.705"/>
  <path id="Инста" class="cls-1" d="M49.99,70.009A15.988,15.988,0,1,1,33.985,86,16,16,0,0,1,49.99,70.009Zm6.4,24.057a1.779,1.779,0,0,0,1.78-1.778V79.744a1.779,1.779,0,0,0-1.78-1.778H43.813a1.779,1.779,0,0,0-1.78,1.778V92.288a1.779,1.779,0,0,0,1.78,1.778H56.386Zm-1.4-9.273a5.02,5.02,0,1,1-9.719,0H43.858v6.914a0.623,0.623,0,0,0,.624.623H55.767a0.623,0.623,0,0,0,.624-0.623V84.793S55.884,84.795,54.984,84.793Zm-4.859-1.636a2.9,2.9,0,1,1,0,5.784A2.892,2.892,0,1,1,50.125,83.157ZM53.9,79.778h1.9a0.623,0.623,0,0,1,.624.623v1.9a0.623,0.623,0,0,1-.624.623H53.9a0.623,0.623,0,0,1-.624-0.623V80.4A0.623,0.623,0,0,1,53.9,79.778Z"/>
  <path id="Инста_копия" data-name="Инста копия" class="cls-9" d="M50.99,160.009a15.989,15.989,0,1,1-16,15.988A16,16,0,0,1,50.99,160.009Zm6.4,24.057a1.779,1.779,0,0,0,1.78-1.778V169.744a1.779,1.779,0,0,0-1.78-1.778H44.813a1.779,1.779,0,0,0-1.78,1.778v12.544a1.779,1.779,0,0,0,1.78,1.778H57.386Zm-1.4-9.273a5.019,5.019,0,1,1-9.719,0H44.858v6.913a0.623,0.623,0,0,0,.624.623H56.767a0.623,0.623,0,0,0,.624-0.623v-6.913S56.884,174.8,55.984,174.793Zm-4.859-1.636a2.9,2.9,0,1,1,0,5.784A2.892,2.892,0,1,1,51.125,173.157Zm3.771-3.379h1.9a0.623,0.623,0,0,1,.624.623v1.9a0.623,0.623,0,0,1-.624.623H54.9a0.623,0.623,0,0,1-.624-0.623v-1.9A0.623,0.623,0,0,1,54.9,169.778Z"/>
  <path id="ФБ" class="cls-1" d="M15.99,105.009A15.989,15.989,0,1,1-.015,121,16,16,0,0,1,15.99,105.009Zm0.789,25.462V121h2.8l0.291-3.147H16.779l0.005-1.892c0-.91.086-1.279,1.394-1.279h1.8v-3.494H17.129c-3.36,0-4.164,1.576-4.164,4.425v2.24H11.039V121h1.927v9.467h3.813Z"/>
  <path id="ФБ_копия" data-name="ФБ копия" class="cls-9" d="M15.99,195.009A15.989,15.989,0,1,1-.015,211,16,16,0,0,1,15.99,195.009Zm0.789,25.462V211h2.8l0.291-3.147H16.779l0.005-1.892c0-.91.086-1.279,1.394-1.279h1.8v-3.494H17.129c-3.36,0-4.164,1.576-4.164,4.425v2.24H11.039V211h1.927v9.467h3.813Z"/>
  <path id="ВК" class="cls-1" d="M50.989,105.009a15.989,15.989,0,1,1-16,15.988A16,16,0,0,1,50.989,105.009Zm6.087,18.6a3.172,3.172,0,0,0-.773-2.245,3.78,3.78,0,0,0-2.056-1.1v-0.073a3,3,0,0,0,1.4-1.165,3.255,3.255,0,0,0,.509-1.8,3.162,3.162,0,0,0-.369-1.547,2.68,2.68,0,0,0-1.113-1.07,4.4,4.4,0,0,0-1.475-.486A16.673,16.673,0,0,0,50.884,114h-4.9V127.85h5.55a8.991,8.991,0,0,0,2.378-.261,4.88,4.88,0,0,0,1.719-.873,3.7,3.7,0,0,0,1.052-1.292,4.011,4.011,0,0,0,.391-1.817h0Zm-4.46-5.692a1.563,1.563,0,0,0-.172-0.689,1.034,1.034,0,0,0-.537-0.511,2.136,2.136,0,0,0-.814-0.165q-0.471-.014-1.4-0.013H49.449v2.931h0.439c0.594,0,1.014-.006,1.253-0.019a2.02,2.02,0,0,0,.741-0.193,1.133,1.133,0,0,0,.575-0.54,1.92,1.92,0,0,0,.16-0.8h0Zm0.874,5.628a1.68,1.68,0,0,0-.26-1,1.567,1.567,0,0,0-.782-0.549,2.576,2.576,0,0,0-.871-0.137c-0.369-.01-0.865-0.014-1.485-0.014H49.449v3.469h0.188q1.358,0,1.879-.019a2.936,2.936,0,0,0,1.062-.251,1.382,1.382,0,0,0,.693-0.6A1.816,1.816,0,0,0,53.49,123.543Z"/>
  <path id="ВК_копия" data-name="ВК копия" class="cls-9" d="M50.989,195.009a15.989,15.989,0,1,1-16,15.988A16,16,0,0,1,50.989,195.009Zm6.087,18.6a3.172,3.172,0,0,0-.773-2.245,3.78,3.78,0,0,0-2.056-1.1v-0.073a3,3,0,0,0,1.4-1.165,3.255,3.255,0,0,0,.509-1.8,3.162,3.162,0,0,0-.369-1.547,2.68,2.68,0,0,0-1.113-1.07,4.4,4.4,0,0,0-1.475-.486A16.673,16.673,0,0,0,50.884,204h-4.9V217.85h5.55a8.991,8.991,0,0,0,2.378-.261,4.88,4.88,0,0,0,1.719-.873,3.7,3.7,0,0,0,1.052-1.292,4.011,4.011,0,0,0,.391-1.817h0Zm-4.46-5.692a1.563,1.563,0,0,0-.172-0.689,1.034,1.034,0,0,0-.537-0.511,2.136,2.136,0,0,0-.814-0.165q-0.471-.014-1.4-0.013H49.449v2.931h0.439c0.594,0,1.014-.006,1.253-0.019a2.02,2.02,0,0,0,.741-0.193,1.133,1.133,0,0,0,.575-0.54,1.92,1.92,0,0,0,.16-0.8h0Zm0.874,5.628a1.68,1.68,0,0,0-.26-1,1.567,1.567,0,0,0-.782-0.549,2.576,2.576,0,0,0-.871-0.137c-0.369-.01-0.865-0.014-1.485-0.014H49.449v3.469h0.188q1.358,0,1.879-.019a2.955,2.955,0,0,0,1.062-.25,1.389,1.389,0,0,0,.693-0.6A1.816,1.816,0,0,0,53.49,213.543Z"/>
  <path id="Твитер" class="cls-1" d="M15.99,70.009A15.989,15.989,0,1,1-.015,86,16,16,0,0,1,15.99,70.009Zm9.32,11.015a7.451,7.451,0,0,1-2.134.584,3.723,3.723,0,0,0,1.633-2.053,7.43,7.43,0,0,1-2.359.9,3.717,3.717,0,0,0-6.33,3.385,10.551,10.551,0,0,1-7.657-3.878,3.712,3.712,0,0,0,1.15,4.955,3.7,3.7,0,0,1-1.683-.464c0,0.015,0,.031,0,0.047a3.714,3.714,0,0,0,2.98,3.639,3.729,3.729,0,0,1-1.678.063A3.717,3.717,0,0,0,12.7,90.78a7.507,7.507,0,0,1-5.5,1.537,10.567,10.567,0,0,0,16.264-8.892q0-.241-0.011-0.48A7.55,7.55,0,0,0,25.309,81.024Z"/>
  <path id="Твитер_копия_2" data-name="Твитер копия 2" class="cls-9" d="M15.99,160.009A15.989,15.989,0,1,1-.015,176,16,16,0,0,1,15.99,160.009Zm9.32,11.015a7.447,7.447,0,0,1-2.134.584,3.72,3.72,0,0,0,1.633-2.053,7.413,7.413,0,0,1-2.359.9,3.717,3.717,0,0,0-6.33,3.386,10.556,10.556,0,0,1-7.657-3.878,3.713,3.713,0,0,0,1.15,4.955,3.723,3.723,0,0,1-1.683-.464c0,0.015,0,.03,0,0.046a3.714,3.714,0,0,0,2.98,3.639,3.716,3.716,0,0,1-.979.13,3.66,3.66,0,0,1-.7-0.067,3.718,3.718,0,0,0,3.47,2.578,7.461,7.461,0,0,1-4.614,1.589,7.622,7.622,0,0,1-.886-0.052,10.567,10.567,0,0,0,16.264-8.892q0-.242-0.011-0.48A7.546,7.546,0,0,0,25.309,171.024Z"/>
</svg>
