<svg xmlns="http://www.w3.org/2000/svg" width="98" height="98" viewBox="0 0 98 98">
  <defs>
    <style>
      .cls-1 {
        fill: #323232;
        fill-rule: evenodd;
      }
    </style>
  </defs>
  <path id="Мороженко" class="cls-1" d="M29.454,9.447a8.575,8.575,0,0,0-14.639,6.064V30.19a0.809,0.809,0,0,0,.809.809H31.157a0.809,0.809,0,0,0,.809-0.809V15.511A8.519,8.519,0,0,0,29.454,9.447Zm0.894,19.934H16.433V18.489c0.045,0.047.092,0.1,0.143,0.156a2.618,2.618,0,0,0,4.309,0,1.207,1.207,0,0,1,.946-0.6,1.061,1.061,0,0,1,.309.427,10.672,10.672,0,0,1,.488,1.226,9.72,9.72,0,0,0,.7,1.648,1.752,1.752,0,0,0,3.237,0,9.728,9.728,0,0,0,.7-1.648,10.6,10.6,0,0,1,.488-1.226,1.059,1.059,0,0,1,.309-0.427,1.208,1.208,0,0,1,.946.6,3.174,3.174,0,0,0,1.346,1v9.732Zm-9.006,8.58a2.049,2.049,0,0,0,4.1,0V31.8h-4.1v6.164ZM23.5-.2A23.7,23.7,0,1,1-.2,23.5,23.7,23.7,0,0,1,23.5-.2Zm0,45.4A21.7,21.7,0,1,1,45.2,23.5,21.726,21.726,0,0,1,23.5,45.2Z"/>
  <path id="Листик" class="cls-1" d="M23.437,89.625s-22.24-10.187,0-32.75C45.677,79.437,23.437,89.625,23.437,89.625Zm7.516-17.188L24.416,76.6h0L24.4,80.28l6.894-4.408A13.425,13.425,0,0,0,30.953,72.437Zm-15.39,3.191L22.4,80.112V76.491l-6.453-4.153A13.666,13.666,0,0,0,15.563,75.628ZM22.4,74.112V70.476L18,67.1a22.018,22.018,0,0,0-1.464,3.24Zm0-6.088V60.977A39.949,39.949,0,0,0,19.04,65.4Zm2,0.273,3.63-2.6A39.779,39.779,0,0,0,24.4,60.88V68.3Zm0.021,2.3h0L24.4,74.28l5.981-3.85a21.7,21.7,0,0,0-1.337-3.013Zm6.443,7.9-6.443,4.1h0L24.4,86.764A15.352,15.352,0,0,0,30.859,78.5ZM22.4,86.7V82.491L15.979,78.36C17.085,82.5,20.3,85.286,22.4,86.7Zm1.1-36.9A23.7,23.7,0,1,1-.2,73.5,23.7,23.7,0,0,1,23.5,49.8Zm0,45.4A21.7,21.7,0,1,1,45.2,73.5,21.726,21.726,0,0,1,23.5,95.2Z"/>
  <path id="Градусник" class="cls-1" d="M74.023,88.333A6.815,6.815,0,0,1,67.2,81.559a8.051,8.051,0,0,1,1.822-4.6V62.115a5,5,0,0,1,10,0v14.91A7.648,7.648,0,0,1,80.8,81.559,6.775,6.775,0,0,1,74.023,88.333Zm0-2a4.8,4.8,0,0,1-4.8-4.775,5.249,5.249,0,0,1,1.846-3.779V62.115a3,3,0,0,1,6,0V77.844a5.077,5.077,0,0,1,1.754,3.715A4.8,4.8,0,0,1,74.023,86.333Zm2.706-4.915a2.774,2.774,0,1,1-3.675-2.611V61.975a0.949,0.949,0,0,1,1.9,0V78.837A2.768,2.768,0,0,1,76.729,81.418ZM82,65h4a1,1,0,1,1,0,2H82A1,1,0,1,1,82,65Zm0-4h4a1,1,0,0,1,0,2H82A1,1,0,1,1,82,61Zm0,8h4a1,1,0,0,1,0,2H82A1,1,0,1,1,82,69Zm0,4h4a1,1,0,1,1,0,2H82A1,1,0,1,1,82,73ZM74.183,49.8a23.7,23.7,0,1,1-23.7,23.7A23.7,23.7,0,0,1,74.183,49.8Zm0,45.4a21.7,21.7,0,1,1,21.7-21.7A21.726,21.726,0,0,1,74.183,95.2Z"/>
  <path id="Корова" class="cls-1" d="M89.578,23a2.42,2.42,0,0,1-2.127,1.047A9.369,9.369,0,0,1,84.2,23.2a17.054,17.054,0,0,1-1.577,8.344,5.2,5.2,0,0,1,.518,3.079c-0.488,3.386-4.283,5.239-8.524,5.239s-8.018-1.853-8.48-5.239a5.161,5.161,0,0,1,.33-2.617,17.337,17.337,0,0,1-1.787-8.725,9.108,9.108,0,0,1-3.064.759A2.42,2.42,0,0,1,59.484,23a2.312,2.312,0,0,1-.162-2.214c0.812-1.912,3.593-2.743,4.75-3.012l0.1-.022c-1.4-2.9-.723-7.6-0.2-9.191l3.058,0.254c0.056,1,.766,2.881,3.436,5.01l1.586,1.092a12.208,12.208,0,0,1,4.685-.02l1.692-1.165c2.67-2.129,3.38-4.007,3.436-5.01l3.058-.254c0.529,1.6,1.207,6.342-.224,9.239l0.294,0.068c1.157,0.269,3.936,1.1,4.75,3.012A2.312,2.312,0,0,1,89.578,23ZM64.509,19.72s-2.859.663-3.361,1.846,3.155-.131,3.834-0.693A2.342,2.342,0,0,1,64.509,19.72Zm3.3,0.069c-1.752,2.755-1.577,7.006.468,11.372l0.366,0.781-0.317.8a3.174,3.174,0,0,0-.209,1.611c0.329,2.411,3.6,3.509,6.5,3.509s6.2-1.1,6.545-3.523a3.2,3.2,0,0,0-.33-1.905l-0.416-.84,0.379-.857c1.878-4.251,1.97-8.371.244-11.019-1.3-1.991-3.575-3.043-6.587-3.043C71.4,16.676,69.1,17.752,67.806,19.788ZM87.9,21.565c-0.5-1.183-3.361-1.846-3.361-1.846a2.34,2.34,0,0,1-.474,1.152C84.745,21.434,88.4,22.748,87.9,21.565Zm-18.57-6.1s-3.595-2.477-3.735-5.015c-0.4,2.175-.584,5.613.705,6.983A22.04,22.04,0,0,1,69.329,15.468Zm10.232-.094S83.156,12.9,83.3,10.359c0.4,2.175.584,5.613-.7,6.983A22.042,22.042,0,0,0,79.561,15.374ZM74.183-.2a23.7,23.7,0,1,1-23.7,23.7A23.7,23.7,0,0,1,74.183-.2Zm0,45.4a21.7,21.7,0,1,1,21.7-21.7A21.726,21.726,0,0,1,74.183,45.2Z"/>
</svg>
