<svg xmlns="http://www.w3.org/2000/svg"><defs><clipPath id="a"><path d="M0 21.296h25.727V0H0z"/></clipPath><clipPath id="a"><path d="M0 21.296h25.727V0H0z"/></clipPath><clipPath id="a"><path d="M0 24h24V0H0z"/></clipPath><clipPath id="a"><path d="M0 9.656h4.5V0H0z"/></clipPath><clipPath id="a"><path d="M0 8.711h8.711V0H0z"/></clipPath><clipPath id="a"><path d="M0 62.011h62.011V0H0z"/></clipPath><clipPath id="a"><path d="M0 24h23V0H0z"/></clipPath><clipPath id="a"><path d="M0 24h24.007V0H0z"/></clipPath><clipPath id="a"><path d="M0 24h24V0H0z"/></clipPath><clipPath id="a"><path d="M0 7.5h9.234V0H0z"/></clipPath><clipPath id="a"><path d="M0 7.5h10.5V0H0z"/></clipPath><linearGradient x1="0%" y1="0%" x2="0%" y2="100%"><stop offset="0%" stop-color="#55646e" class="stop-1"/><stop offset="100%" stop-color="#688595" class="stop-2"/></linearGradient><clipPath id="a"><path d="M0 312.61h440.4V0H0z"/></clipPath></defs><symbol id="arrow" viewBox="0 0 34.302799 28.394533"><g clip-path="url(#a)" transform="matrix(1.3333 0 0 -1.3333 0 28.395)"><path d="M25.727 10.688c0 .163-.034.318-.09.463-.003.006-.003.013-.007.019a1.244 1.244 0 0 1-.275.415l-9.338 9.338a1.27 1.27 0 0 1-1.796-1.795l7.171-7.171H1.269a1.27 1.27 0 0 1 0-2.54h20.123l-7.252-7.25A1.27 1.27 0 0 1 15.937.372l9.418 9.418c.118.117.211.258.275.415.004.007.004.013.007.02.056.144.09.299.09.463"/></g></symbol><symbol id="arrow_green" viewBox="0 0 34.302799 28.394533"><g clip-path="url(#a)" transform="matrix(1.3333 0 0 -1.3333 0 28.395)"><path d="M25.727 10.688c0 .163-.034.318-.09.463-.003.006-.003.013-.007.019a1.244 1.244 0 0 1-.275.415l-9.338 9.338a1.27 1.27 0 0 1-1.796-1.795l7.171-7.171H1.269a1.27 1.27 0 0 1 0-2.54h20.123l-7.252-7.25A1.27 1.27 0 0 1 15.937.372l9.418 9.418c.118.117.211.258.275.415.004.007.004.013.007.02.056.144.09.299.09.463" fill="#25ffc4"/></g></symbol><symbol id="icon_explore" viewBox="0 0 32 32"><g clip-path="url(#a)" transform="matrix(1.3333 0 0 -1.3333 0 32)"><path d="M.5 19.5h20" fill="none" stroke="#24ffc3" stroke-linecap="round" stroke-linejoin="round" stroke-miterlimit="10"/><path d="M3.5 22a.5.5 0 1 1 0-1 .5.5 0 0 1 0 1M5.5 22a.5.5 0 1 1 0-1 .5.5 0 0 1 0 1M7.5 22a.5.5 0 1 1 0-1 .5.5 0 0 1 0 1" fill="#24ffc3"/><path d="M9.5 7.5h-7a2 2 0 0 0-2 2v12a2 2 0 0 0 2 2h16c1.106 0 2-.895 2-2v-8" fill="none" stroke="#24ffc3" stroke-linecap="round" stroke-linejoin="round" stroke-miterlimit="10"/><path d="M18.008 11.5L20 7.5h3.5l-3-2.5L22 .5l-4 2.747L14 .5 15.5 5l-3 2.5H16z" fill="none" stroke="#24ffc3" stroke-linejoin="round" stroke-miterlimit="10"/></g></symbol><symbol id="icon_facebook" viewBox="0 0 6 12.875067"><g clip-path="url(#a)" transform="matrix(1.3333 0 0 -1.3333 0 12.875)"><path d="M2.994 6.492H4.5l-.176-1.664h-1.33V0H.996v4.828H0v1.664h.996v1.002c0 .711.168 1.25.504 1.615s.89.547 1.658.547h1.33V7.992h-.832c-.152 0-.274-.012-.366-.037a.324.324 0 0 1-.199-.139.547.547 0 0 1-.079-.2 1.793 1.793 0 0 1-.018-.292z"/></g></symbol><symbol id="icon_instagram" viewBox="0 0 11.614253 11.614093"><g clip-path="url(#a)" transform="matrix(1.3333 0 0 -1.3333 0 11.614)"><path d="M6.234.5H2.476A1.982 1.982 0 0 0 .5 2.476v3.758c0 1.087.89 1.977 1.976 1.977h3.758c1.087 0 1.976-.89 1.976-1.977V2.476A1.982 1.982 0 0 0 6.234.5z"/><path d="M4.355 2.733c-.892 0-1.622.73-1.622 1.622s.73 1.622 1.622 1.622 1.622-.73 1.622-1.622-.73-1.622-1.622-1.622zM6.713 6.596a.076.076 0 0 0-.076-.076c-.043 0-.077.034-.077.076s.034.077.077.077a.077.077 0 0 0 .076-.077z"/></g></symbol><symbol id="icon_play_btn" viewBox="0 0 82.681068 82.680931"><g clip-path="url(#a)" transform="matrix(1.3333 0 0 -1.3333 0 82.681)"><path d="M31.006 3C15.564 3 3 15.563 3 31.005s12.564 28.006 28.006 28.006 28.005-12.564 28.005-28.006S46.448 3 31.006 3m0 59.011C13.909 62.011 0 48.102 0 31.005 0 13.909 13.909 0 31.006 0c17.096 0 31.005 13.909 31.005 31.005 0 17.097-13.909 31.006-31.005 31.006" fill="#3bd1bb"/><path d="M24.764 21.724v18.504l16.018-9.256zm18.314 11.382a1.493 1.493 0 0 1-.141.093l-17.203 9.933c-.56.322-1.08.48-1.591.48-1.154 0-2.338-.871-2.379-2.85V21.256c.046-1.973 1.257-2.857 2.436-2.857.541 0 1.099.171 1.71.522l16.457 9.502c1.192.688 1.824 1.521 1.877 2.475.028.482-.087 1.412-1.166 2.208" fill="#3bd1bb"/></g></symbol><symbol id="icon_posting" viewBox="0 0 30.666668 32"><g clip-path="url(#a)" transform="matrix(1.3333 0 0 -1.3333 0 32)"><path d="M4.5.5h-4v8h4z" fill="none" stroke="#c2424f" stroke-linejoin="round" stroke-miterlimit="10"/><path d="M4.5 1.5h17c0 1.5-3.5 3-7.5 3H7" fill="none" stroke="#c2424f" stroke-linecap="round" stroke-linejoin="round" stroke-miterlimit="10"/><path d="M4.5 7.5H8c2.352 0 3.5-2.5 4-3" fill="none" stroke="#c2424f" stroke-linejoin="round" stroke-miterlimit="10"/><path d="M2.5 3a.5.5 0 1 1 0-1 .5.5 0 0 1 0 1" fill="#c2424f"/><path d="M2.5 13v8.5c0 1.1.9 2 2 2h16c1.1 0 2-.9 2-2v-12c0-1.1-.9-2-2-2h-3M2.5 19.5h20" fill="none" stroke="#c2424f" stroke-linecap="round" stroke-linejoin="round" stroke-miterlimit="10"/><path d="M5.5 22a.5.5 0 1 1 0-1 .5.5 0 0 1 0 1M7.5 22a.5.5 0 1 1 0-1 .5.5 0 0 1 0 1M9.5 22a.5.5 0 1 1 0-1 .5.5 0 0 1 0 1" fill="#c2424f"/></g></symbol><symbol id="icon_score" viewBox="0 0 32.009201 32"><g stroke="#ebb346"><path d="M15.96 4.667l1.334 2.667h2.667l-2.156 1.647.823 3.02-2.667-2-2.667 2 1.06-3.02-2.393-1.647h2.667z" fill="none" stroke-linejoin="round" stroke-miterlimit="10" stroke-width="1.3333"/><g clip-path="url(#a)" transform="matrix(1.3333 0 0 -1.3333 0 32)"><path d="M5.129 13.5c-5 0-4.622 6.619-4.622 8h2.535M18.85 13.5c5 0 4.651 6.619 4.651 8h-2.563" fill="none" stroke-linecap="round" stroke-linejoin="round" stroke-miterlimit="10"/><path d="M21.006 23.5h-18c0-15.434 7.965-11.054 7.965-16.5-.063-3.5-1.703-4.5-4.465-4.5v-2h11v2c-2.762 0-4.535 1-4.535 4.5 0 5.453 8.035 1.13 8.035 16.5z" fill="none" stroke-linecap="round" stroke-linejoin="round" stroke-miterlimit="10"/></g></g></symbol><symbol id="icon_search" viewBox="0 0 32 32"><g clip-path="url(#a)" transform="matrix(1.3333 0 0 -1.3333 0 32)" stroke="#25a8bc"><path d="M16.5 15.5a8 8 0 1 0-16 0 8 8 0 0 0 16 0z" fill="none" stroke-linejoin="round" stroke-miterlimit="10"/><path d="M14.156 9.844L23.5.5" fill="none" stroke-linecap="round" stroke-linejoin="round" stroke-miterlimit="10"/></g></symbol><symbol id="icon_twitter" viewBox="0 0 12.31252 9.9999733"><g clip-path="url(#a)" transform="matrix(1.3333 0 0 -1.3333 0 10)"><path d="M8.145 6.316c.363.04.727.137 1.09.293a3.979 3.979 0 0 0-.95-.979 5.386 5.386 0 0 0-.217-1.765c-.148-.506-.373-.992-.676-1.457s-.663-.875-1.081-1.233C5.893.818 5.389.533 4.799.32S3.579 0 2.907 0A5.26 5.26 0 0 0 0 .85C.137.832.29.825.458.825c.878 0 1.662.27 2.349.808-.41.008-.777.135-1.101.38a1.844 1.844 0 0 0-.668.933 1.956 1.956 0 0 1 .855.035c-.437.09-.8.31-1.087.654A1.827 1.827 0 0 0 .375 4.84v.024c.266-.149.55-.229.856-.24A1.886 1.886 0 0 0 .387 6.2c0 .343.086.662.258.955A5.372 5.372 0 0 1 2.37 5.757a5.278 5.278 0 0 1 2.176-.584 2.125 2.125 0 0 0-.047.434c0 .523.185.971.554 1.34s.816.553 1.339.553c.547 0 1.008-.2 1.383-.598a3.7 3.7 0 0 1 1.2.457 1.84 1.84 0 0 0-.831-1.043"/></g></symbol><symbol id="icon_youtube" viewBox="0 0 14 10"><g clip-path="url(#a)" transform="matrix(1.3333 0 0 -1.3333 0 10)"><path d="M7.324 3.434a.337.337 0 0 1 .176.316c0 .145-.059.25-.176.317l-3 1.875a.352.352 0 0 1-.38.01.348.348 0 0 1-.194-.327v-3.75a.35.35 0 0 1 .193-.328.41.41 0 0 1 .182-.047c.078 0 .144.02.2.059zm3.17 1.195c.004-.211.006-.504.006-.88s-.002-.667-.006-.877a11.728 11.728 0 0 0-.05-.8 6.375 6.375 0 0 0-.132-.865 1.365 1.365 0 0 0-.404-.72 1.23 1.23 0 0 0-.727-.34C8.314.049 7.004 0 5.251 0S2.184.049 1.317.147C1.041.177.798.29.59.487a1.364 1.364 0 0 0-.408.72 7.561 7.561 0 0 0-.126.866c-.029.322-.045.588-.049.799-.004.21-.006.503-.006.878s.002.668.006.879.02.479.05.8c.03.323.073.61.131.864.063.285.198.526.405.72s.45.31.726.34c.867.099 2.178.147 3.932.147s3.064-.048 3.931-.146c.278-.031.521-.145.73-.34s.345-.436.407-.721c.055-.254.097-.541.126-.863s.046-.59.05-.801"/></g></symbol><symbol id="logo" viewBox="0 0 587.2027 416.81866"><path d="M139.45.017l-105.856 90.6 26.373 31.972h39.99L76.668 94.357l74.178-63.49H440.2l74.298 63.498-23.28 28.224h39.991l26.38-31.98-106-90.592zM389.257 254.584L295.425 368.34l-93.837-113.756h-39.995L295.43 416.82l133.823-162.236zM0 229.091h18.932v-82.038H0z"/><g clip-path="url(#a)" transform="matrix(1.3333 0 0 -1.3333 0 416.82)"><path d="M80.41 164.74l-7.799 21.158a74.756 74.756 0 0 0-1.39 5.292h-.279c-.186-1.488-.652-3.342-1.39-5.569L62.59 164.74zm22.271-23.945H87.37l-4.458 13.365H59.525l-4.453-13.365H40.038l22.829 61.53H79.57zM172.29 140.8h-13.363v36.474c0 3.897.181 8.532.555 13.921h-.275c-.559-3.714-1.301-7.24-2.227-10.58L145.564 140.8H133.87l-11.416 40.929a462.045 462.045 0 0 0-2.227 9.466h-.281c0-1.115.093-2.693.281-4.734.181-5.57.279-9.559.279-11.973V140.8H107.42v61.53h20.601l10.86-40.368c.184-1.114.461-3.342.835-6.685 0 .558.089 1.298.278 2.227 0 2.41.184 3.898.558 4.458l10.859 40.368h20.879zM259.24 140.8h-13.924v24.781H218.59V140.8h-13.92v61.53h13.92v-24.778h26.726v24.778h13.924zM315.12 140.8h-48.172v61.53h47.334v-11.413h-33.414v-13.365h31.188v-11.417h-31.188V151.66h34.252zM347.96 191.47h-11.971v-16.428h11.971c7.424 0 11.041 2.689 10.861 8.074.369 5.75-3.252 8.536-10.861 8.354m28.678-50.395h-17.541l-15.035 23.666h-8.073v-23.945h-13.922v61.53h28.12c15.037-.373 22.832-6.498 23.388-18.375.182-10.209-4.826-16.336-15.035-18.374zM425.09 171.15c-.377 12.807-5.478 19.49-15.313 20.047-10.023-.557-15.313-7.24-15.872-20.047.369-12.623 5.568-19.212 15.593-19.769 10.024.369 15.215 6.959 15.592 19.769m15.313 0c-1.117-19.866-11.233-30.349-30.35-31.463-19.305 1.114-29.513 11.597-30.623 31.463.926 20.603 11.136 31.274 30.623 32.017 18.933-1.111 29.047-11.789 30.35-32.017"/></g></symbol></svg>